<?xml version="1.0" encoding="UTF-8"?>
<svg id="Layer_2" data-name="Layer 2" xmlns="http://www.w3.org/2000/svg" viewBox="0 0 1842.52 1842.52">
  <defs>
    <style>
      .cls-1 {
        fill: #fff;
      }
    </style>
  </defs>
  <polygon class="cls-1" points="731.33 591.78 731.33 594.33 731.33 729.75 1094 729.75 1193.67 586 731.33 586 731.33 591.78"/>
  <polygon class="cls-1" points="893.9 784.18 1041.33 784.18 979.94 870.22 825.57 870.22 893.9 784.18"/>
  <path class="cls-1" d="M725.61,839.42v133.3h-171.68l70.11-134s101.57,2.34,101.57.71Z"/>
  <rect class="cls-1" x="611.6" y="1033.38" width="110.73" height="220.03"/>
  <path class="cls-1" d="M734.13,987.14l-22.62,29.35h162.98l71.51-92.93h-97.5s-9.27-.33-16.95,1.01c-15.55,2.71-26.25,11.39-30.15,14.64,0,0-11.57,9.83-21.58,28.83-4.85,9.21-3.97,10.44-8.49,17.08-6.12,8.98-15.26,17.76-15.36,17.87-.1.03-5.82,3.25-10.2,1.91-5.01-1.53-7.69-7.24-8.91-9.85-.93-1.98-1.44-3.74-1.72-4.98l-1.01-2.92Z"/>
  <path class="cls-1" d="M1005.78,879.27h-258.29c.57,75.95.49,107.84,0,110.56-.02.13-.01.71,0,1.51.04,2.48.26,4.63.51,6.33.78-.64,1.95-1.64,3.33-2.89,27.4-24.86,22.95-49.44,41.61-65.96,7.49-6.63,18.33-8.96,40.05-13.45,20.87-4.31,36.22-4.07,58.09-3.87,16.81.15,43.42.34,78.68.32v319.7c0,6.52-3.26,15.99-3.26,15.99-3.6,10.46-5.4,15.69-8.83,21.5-12.98,21.97-37.31,34.55-45.5,34.83-.02,0-4.23.15-8.67,2.5-2.85,1.51-3.46,2.7-3.67,3.5-.51,1.98.77,4.08,1.93,5.18,3.52,3.32,10.24,1.52,11.86,1.14,9.22-2.2,43.32-4.09,97.61-5.81v-431.07h-5.45Z"/>
  <path class="cls-1" d="M1039.19,878.13v431.87c55.35.67,76.24,1.8,83.52,2.85,10.26,1.48,13.83,1.57,20.98,1.74,3.58.09,3.59-.2,6.75,0,3.55.23,4.9.68,5.96-.28,1.24-1.12,1.36-3.52.43-5.01-.89-1.41-2.59-1.79-3.21-1.93-4.54-1.05-11.24-3.42-24.65-8.17-4.8-1.7-8.98-3.18-13.73-6.66-2.98-2.19-5.32-4.52-10.05-10.31-5.23-6.4-9.84-12.04-13.17-17.59-7.57-12.6-9.06-25.53-9.8-33.43-4.01-42.54-3.2-117.42-3.19-139.42,0-19.35-.61-11.43-1.68-55.47-.99-40.88-1.01-100.11-1.02-117.35,0-3.63,0-7.23,0-10.16,75.24.04,128.77.05,147.67,0,.53,0,1.57,0,3.02.1,21,1.57,38.26,19.54,46.12,35.09,5.32,10.52,9.24,25.67,8.96,29.97-.03.44-.21,2.51.68,4.87.85,2.24,2.25,3.64,2.81,4.2,1.13,1.11,3.92,4.05,5.9,3.28.8-.31,1.17-1.1,1.82-2.82,1.45-3.85,2.17-5.78,2.43-7.62,3.01-21.52.67-76.45.67-76.45,0-13.26-.86-19.87-.51-21.33.45-1.94,1.12-4.09,0-5.72-2.88-4.17-14.65-.53-16.57,0-11.21,3.1-67.88,5.73-234.88,5.81l-5.27-.09Z"/>
  <path class="cls-1" d="M1188.89,1216.8c.49-4.95-.16-39.61-3.16-132.33h-25.12l45.17-43.89c3.72,123.42,4.8,169.63,4.55,176.23-.02.44-.1,2.26,0,4.76.32,8.22,2.21,14.62,3.2,17.56,0,0,5.15,15.38,16.46,25.66,1.19,1.08,1.3,1.14,1.3,1.14.16.09.3.16.39.33.28.52-.29,1.32-.35,1.41-.75,1.05-2.29,1.21-2.72,1.25-7.04.7-18.93-6.07-18.93-6.07-3.39-1.93-5.13-2.93-7-4.64-3.08-2.81-4.66-5.55-6.48-8.78-4.1-7.27-5.67-13.62-6.14-15.66-1.51-6.59-1.44-11.76-1.39-13.43.06-1.89.21-3.29.23-3.54Z"/>
  <path class="cls-1" d="M1248.51,1000.66c0,.1-.93,56.26,1.27,59.45,1.05,1.52,2.44,2,2.44,2,1.35.46,2.6,0,2.89,0,24.44-.02,36.66-.02,43.79-.66,17.38-1.56,29.21-2.57,34.01-8.73,2.94-3.77,5.61-5.63,10.93-9.34.52-.36,1.69-1.16,3.38-1.4,2.53-.36,5.74.6,6.68,2.28,2.11,3.76-6.81,12.04-12.2,18.02-4.3,4.77-10.82,12-21.17,16.17-6.3,2.54-11.1,2.76-20.65,3.21-7.07.33-29.59,1.39-41.34.36-1.45-.13-5.56-.53-7.51,1.86-.75.91-.91,1.91-1.01,2.51-1.63,10.41-1.59,21.72-1.59,21.72,0,1.67-.02,3.33,0,5,.29,23.13.14,53.74,2.22,89.56.54,9.32,1.41,22.4,10.67,33.67,10.42,12.68,24.13,15.66,28.87,16.62,14.57,2.94,32.53.02,44.41-9.94,18.17-15.24,20.91-18.38,20.91-18.38,1.87-2.13,5.43-6.4,7.8-5.51,1.76.66,2.33,3.97,2.31,5.99,0,0-.04,2.99-1.75,5.73-16.37,26.23-40.41,35.9-40.41,35.9-23.26,9.36-64.34,13.83-83.48-8.97-7.59-9.04-14.22-25.35-14.89-41.78-.11-2.79-.03-4.88,0-5.56.55-14.09.71-65.25,0-186.67l23.33-27.76.06,4.65Z"/>
  <path class="cls-1" d="M894.62,1444.73h36.27c3.72,6.23,7.45,12.47,11.17,18.7,4.05-6.23,8.11-12.47,12.16-18.7h30.97c-5.2,6.98-12.78,18.06-19.91,32.7-16.14,33.17-16.96,57.98-23.23,58-5.93.01-7.13-22.08-20.8-51-8.49-17.95-18.87-31.12-26.64-39.7ZM560.22,428.28s-30.39-13.81-49.83-4.77c-1.83.85-17.25,8.14-20.98,23.2-1.73,7-.49,12.87.21,16.04,6.67,30.05,16.58,56.76,22.08,77.11,0,0,2.24,8.27,6.28,30.35,15.31,83.55-.1,179.6-.1,179.6-13.99,87.19-44.71,154.23-69.84,209.06-16.34,35.67-29.62,59.3-44.88,105.23-6.91,20.82-21.21,67.23-20.8,124.25,0,0,.37,51.87,17.95,72.75.49.58,8.19,9.69,18.75,21.7,3.67,4.18,6.7,7.6,8.72,9.85-60.74-4.17-83.41-5.91-88.89-6.52-.23-.03-.97-.11-1.97-.14-2.57-.08-11.88-.38-17.33,5.96-4.1,4.77-4.88,11.78-2.94,17.1,2.76,7.57,10.75,10.94,14.24,12.43,15.54,6.66,41.12,18.78,74.8,34.66-58.3,22.89-82.32,32.09-86,33.2-.1.03-.48.14-.96.37-4.35,2.12-6.35,9.32-5.39,14.83,1.7,9.71,12.52,13.72,13.96,14.23,5.3,1.87,9.95,1.25,10.84,1.15,11.53-1.36,101.92.22,243.83,3.72-.03.75-.04,1.83.02,3.12.21,4.08,1.08,7.36,1.43,8.34,1.53,4.37,8.29,8.11,16.72,9.63,182.22,4.29,255.83,5.26,264.76,4.32.48-.05,2-.24,4,0,11.97,1.42,19.76,14.46,22.89,19.91,21.71,37.87,35.48,82.95,48.13,83.12,17.09.22,50.54-81.27,60.11-94.27,2.01-2.73,4.22-4.14,4.85-4.52,5.91-3.62,12.58-2.39,13.93-2.21,24.79,3.4,231.26-2.26,236.33-2.45.02,0,.11,0,.25-.01,9.67-.38,15.54-.15,15.54-.15,0,0,9.05-.45,13.75-3.76,2.81-1.98,5.61-6.07,5.96-15.23,150.85-2.54,209.12-3.88,222.88-4.57,0,0,6.37.11,16.53-.82,20.75-1.89,38.08-3.46,41.66-12.83,2.38-6.21-1.85-14.34-6.24-18.49-4.92-4.65-11-5.54-12.66-5.81-10.95-1.78-34.43-9.51-80.78-28.49,42.5-21.06,69.34-33.46,78.65-36.1,1.09-.31,5.73-1.56,9.9-5.46,1.75-1.64,6.7-6.27,6.64-13.29-.06-7.45-5.73-13.33-11.11-15.38-3.28-1.25-6.18-.97-6.97-.9-9.43.87-45.88,2.58-96.49,4.86,4.19-4.18,9.49-9.85,15.12-16.99,1.48-1.88,7.04-8.96,11.68-16.53,0,0,10.36-16.92,15.72-39.41,9.85-41.36-1.85-90.57-1.85-90.57-16.8-70.65-39.18-128.87-43.17-139.3-22.5-58.86-43.14-112.86-57.34-185.78-2.97-15.23-18.81-99.07-10.48-178.77,1.71-16.33,2.6-24.5,4.99-35.36,10.2-46.25,34.49-89.43,53.81-147.05,2.07-6.18,5.93-18.19.15-25.38-6.1-7.59-19.81-6-32.43-4.32-12.29,1.63-31.18,5.78-52.96,17.62,1.37-3.46,3.05-8.64,3.7-15.11.81-8,1.59-15.71-2.65-21.98-7.05-10.43-24.01-11.04-34.59-8.21-5.76,1.54-9.63,4.11-10.28,4.54-21.79,14.26-82.46,21.77-88.12,22.45-29.4,3.52-78.9,9.43-137.35-8.25-43.09-13.03-114.76-56.76-132.79-75.26-1.19-1.23-5.02-5.29-11.07-6.62-13.82-3.03-27.61,10.8-31.34,14.38-20.14,19.34-105.76,83.5-172.22,101.33-62.26,16.7-153.53,2.18-178.95-9.37ZM544.46,443.81c27.14,10.44,136.6,26.65,210.56,6,64.26-17.94,148.44-76.76,163.53-97.33,1.51-2.06,8.06-11.54,16.58-11.33,7.96.2,13.64,8.76,15,10.67,13.82,19.4,88.79,63.35,169.67,76.67,0,0,80.2,13.21,162.26-11.73,2.7-.82,5.42-1.59,8.1-2.46,28.33-9.24,40.98-20,47.57-14.21.2.18.34.29.48.47,1.27,1.58,1.88,6.09-1.56,29.92-1.42,9.82-2.82,18.03-3.89,23.99,40.09-12.97,70.51-22.35,84.32-26.36,2.18-.63,6.72-1.87,9.15.38,5.97,5.5-5.81,27.18-8.5,32.29-11.47,21.77-36.93,67.4-54.35,166.54-15.99,91.01,6.28,170.22,22.89,229.3,12.74,45.32,41.45,129.43,70.02,203.31,5.54,14.34,19.85,50.96,22.17,100.4,2.99,63.61-16.47,92.83-20.95,99.12-12.05,16.91-32.42,31.69-34.59,33.25-6.19,4.44-9.92,6.29-13.63,7.57-8.35,2.87-17.54,3.13-24.64,3.33-1.72.05-3.14.06-4.07.06l-192.25-.29c14.93,7.49,29.86,14.99,44.79,22.48l-554.72-2.44-45.2.6c8.13-3.69,16.38-7.59,24.74-11.7,3.77-1.86,7.49-3.72,11.17-5.59-.37,0-1.28,0-1.66,0-95.92-.03-171.53-4.52-182.45-4.7-.31,0-1.28-.02-2.6-.11-3.6-.26-6.68-.9-9.14-1.57,0,0-4.16-1.16-8.34-3.21-35.7-17.57-53.03-55.53-53.03-55.53-7.76-16.74-9.43-31.13-10.91-44.82-2.22-20.62-1.83-46.64,10.03-92.41,8.95-34.52,19.18-60.01,30.82-87.85,26.19-62.61,41.47-93.89,51.19-116.35,8.97-20.72,50.64-121.2,50.03-240.47-.04-7.43.09-91.62-18.53-147.64,0,0-.47-1.41-17.02-50.69-.46-1.42-1.75-5.98-.11-11.12,0,0,1.39-4.51,4.79-7.7,8.45-7.92,31.21.87,32.27,1.28ZM933.48,355.37c-6.58,9.63-16.6,22.83-30.73,36.61-38.27,37.31-78.89,51.73-109.9,62.36-18.52,6.35-90.65,29.56-186.84,19.02-35.46-3.89-64.53-11.3-85.03-17.63l1.54,6.57c.79,2.53,1.94,6.2,3.32,10.62,0,0,2.63,8.42,4.67,15,.83,2.69,13.06,40.64,19.34,87.54,3.47,25.89,9.44,70.49,5.99,126.93-5.24,85.84-29.31,150.64-43.39,187.7-9.09,23.92-10.2,22.99-60.18,143.33-5.62,13.54-15.22,36.86-23.97,68.78-10,36.47-15.11,70.31-10.28,104.37,1.62,11.42,3.93,19.88,6.78,27.43,9.61,25.48,24.82,40.31,28.13,43.42,7.91,7.45,17.36,16.35,32.81,20.12,10.52,2.57,19.64,1.74,25.34.75-2.19-1.2-4.96-2.77-8.11-4.71-.24-.15-2.41-1.49-4.65-2.96-6.19-4.08-11.82-8.51-13.24-9.68-4.32-3.57-13.53-13.28-21.18-30.74-.8-1.82-10.65-24.81-10.92-50.75-.66-64.4,57.26-192.67,58.36-195.11,27.78-61.52,51.19-113.39,67.18-183.7,22.18-97.56,16.55-169.42,14.7-188.79-5.25-54.8-17.99-99.16-28.75-129.49,24.98,10.26,64.14,22.91,113.44,25.11,56.46,2.52,98.07-9.93,130.67-20,38.09-11.77,75.18-23.7,108.67-57.33,10.23-10.28,17.49-19.93,22.12-26.67,28.69,26.2,79.57,64.92,152.32,84.93,67.9,18.68,125.09,12.87,157.99,9.23,36.13-3.99,65.89-11.5,87.2-18.05-.92,2.47-2.24,6.08-3.78,10.44-6.84,19.43-20.17,57.83-27.17,104.61-4.8,32.09-4.9,56.61-4.91,76.29,0,14.05.47,56.47,11.15,118.29,2.81,16.27,15.83,88.81,49.35,178.45,6.5,17.37,18.45,47.94,35.57,95.7,0,0,6.97,19.44,22.8,80.46,1.86,7.17,4.47,17.45,5.04,31.34.26,6.43.9,25.67-5.93,45.43-11.74,33.95-39.6,52.37-49.9,58.5,1.68.01,4.53.03,8.09.04,5.36.01,9.44,0,9.77,0,5.7-.04,18.39-4.42,33.27-17.25,17.81-15.36,26.6-32.32,29.51-38.36,7.32-15.22,9.51-28.09,11.21-38.5,3.21-19.74,2.11-35.13,1.14-47.75-.58-7.5-2.06-22.01-6.5-39.96-2.84-11.47-5.43-18.48-9.16-29.28-13.6-39.33-11.69-40.4-22.04-69.12-9.42-26.14-10.11-22.79-20.35-50.83-3.56-9.75-7.65-21.6-18.47-57.23-10.51-34.62-15.76-51.92-19.71-66.79-18.78-70.81-20.27-132.3-20.49-145.68-.45-26.98-.85-64.53,9.13-111.38,7.23-33.94,22.85-86.56,59.97-144.28-32.96,11.02-65.92,22.05-98.88,33.07,1.33-17,2.67-34,4-51-44.21,10.81-118.7,26.16-176.22,20.85-5.05-.47-10.33-1.08-10.33-1.08-25.83-3-65.03-7.83-109.47-26.87-45.55-19.52-73.55-46.13-80.92-53.16-3.87-3.7-6.99-6.9-9.15-9.17ZM638,1313.89l-39.56,18.33h4.22c-3.94,0-4.22,0-4.22,0-.02.12,671.86,2.79,672.67,2.79,0,0-48.41-22.61-48.55-22.68,106.82-1.72,213.63-3.44,320.45-5.17,0,0-111.07,51.73-111.18,51.78,40.3,16.28,80.59,32.55,120.89,48.83-104.9.44-209.81.89-314.71,1.33,5.1,7.55,10.19,15.1,15.29,22.65-215.56-.74-431.11-1.48-646.67-2.22,6.76-7.7,13.51-15.4,20.27-23.1-7.89-.03-17-.07-24.89-.11-90.2-.44-180.4-1.33-270.59-2.67,0,0,117.13-46.52,117.13-46.52-5.88-2.88-109.87-53.81-109.87-53.81,0,0,299.13,10.55,299.33,10.56Z"/>
  <g>
    <path class="cls-1" d="M481.19,1384.07c-3.97-.31-5.95-.46-9.92-.77.44-5.62.66-8.44,1.11-14.06,3.96.31,5.94.47,9.89.77.89,3.92,2.96,6,6.23,6.25,2.36.18,3.62-.68,3.76-2.57.07-.99-.28-1.84-1.05-2.55-.83-.77-2.64-1.91-5.37-3.39-3.45-1.87-5.98-3.51-7.57-4.8-1.48-1.2-2.72-2.79-3.69-4.76-.96-1.95-1.36-4.07-1.18-6.34.32-4.08,1.9-7.15,4.72-9.24,2.8-2.08,6.12-2.98,9.96-2.69,3.84.29,7.01,1.63,9.51,4.02.08-1.08.12-1.63.2-2.71,3.96.3,5.95.44,9.91.73-.37,5-.55,7.49-.91,12.49-3.92-.29-5.88-.43-9.81-.73-.94-3.54-2.93-5.42-5.98-5.65-2.14-.16-3.28.67-3.42,2.5-.07.88.21,1.57.76,2.06.55.49,2.39,1.67,5.48,3.49,4.14,2.45,6.92,4.25,8.3,5.34.7.54,1.4,1.27,2.11,2.2.7.93,1.28,1.88,1.71,2.84,1.01,2.15,1.43,4.42,1.25,6.81-.27,3.68-1.89,6.69-4.8,9.03-2.93,2.36-6.5,3.42-10.68,3.11-3.89-.29-7.32-1.71-10.29-4.24-.09,1.15-.13,1.72-.22,2.87Z"/>
    <path class="cls-1" d="M553.9,1389.24c-14.03-.92-28.05-1.88-42.07-2.88.3-4.2.45-6.3.76-10.5,1.37.1,2.05.15,3.42.24.65-9.15.98-13.72,1.63-22.87-1.39-.1-2.08-.15-3.47-.25.3-4.2.45-6.3.76-10.5,13.94.99,27.88,1.94,41.83,2.86-.36,5.62-.55,8.43-.91,14.04-4.61-.3-6.91-.45-11.52-.76.09-1.41.14-2.12.24-3.53-3.99-.27-5.98-.4-9.96-.67-.19,2.7-.28,4.05-.46,6.75,3.47.24,5.21.36,8.68.59-.24,3.57-.36,5.36-.6,8.93-3.48-.23-5.22-.35-8.69-.59-.2,2.88-.3,4.32-.49,7.19,4,.27,6,.41,10,.68.09-1.41.14-2.12.24-3.53,4.62.31,6.93.46,11.55.76-.36,5.62-.55,8.42-.91,14.04Z"/>
    <path class="cls-1" d="M589.21,1391.81c-5.49-.32-8.24-.49-13.73-.83-4-11.54-7.98-23.09-11.93-34.65-1.3-.08-1.95-.12-3.25-.21.27-4.2.41-6.3.68-10.51,9.42.61,14.13.9,23.55,1.47-.25,4.2-.38,6.31-.63,10.51-1.49-.09-2.23-.14-3.72-.23,2.15,7.65,3.24,11.47,5.41,19.11,3.19-7.32,4.79-10.98,7.97-18.31-1.44-.08-2.16-.13-3.6-.21.25-4.2.37-6.31.62-10.51,7.07.42,10.6.62,17.66,1.02-.24,4.21-.36,6.31-.59,10.51-1.3-.07-1.95-.11-3.25-.18-5.04,11.01-10.1,22.02-15.18,33.01Z"/>
    <path class="cls-1" d="M651.34,1394.78c-14.03-.7-28.07-1.43-42.1-2.21.23-4.21.35-6.31.59-10.51,1.37.08,2.05.11,3.42.19.51-9.16.76-13.73,1.27-22.89-1.39-.08-2.08-.12-3.47-.19.23-4.21.35-6.31.59-10.51,13.95.77,27.9,1.5,41.86,2.19-.27,5.62-.41,8.43-.69,14.05-4.61-.23-6.91-.34-11.52-.57.07-1.41.11-2.12.18-3.54-3.99-.2-5.98-.31-9.97-.51-.14,2.7-.21,4.05-.35,6.76,3.47.18,5.21.27,8.69.45-.18,3.57-.27,5.36-.46,8.94-3.48-.18-5.22-.27-8.7-.45-.15,2.88-.23,4.32-.38,7.2,4,.21,6,.31,10.01.52.07-1.41.11-2.12.18-3.54,4.62.23,6.93.35,11.55.58-.28,5.62-.41,8.43-.69,14.05Z"/>
    <path class="cls-1" d="M675.27,1395.91c-7.25-.33-10.87-.49-18.12-.84.2-4.21.3-6.31.5-10.52,1.55.07,2.32.11,3.86.18.43-9.16.65-13.74,1.08-22.9-1.54-.07-2.31-.11-3.85-.18.2-4.21.3-6.31.5-10.52,8.3.4,12.46.59,20.76.96,4.97,7.9,9.97,15.78,14.98,23.66.21-4.98.31-7.47.52-12.45-1.43-.06-2.14-.09-3.57-.15.18-4.21.27-6.31.45-10.52,7.07.3,10.61.45,17.68.72-.17,4.21-.25,6.31-.42,10.52-1.53-.06-2.29-.09-3.82-.15-.46,11.33-.91,22.66-1.37,34-5.82-.23-8.72-.35-14.54-.6-5.81-9.12-11.61-18.25-17.39-27.39-.28,6.19-.42,9.29-.71,15.48,1.56.07,2.34.11,3.9.18-.19,4.21-.28,6.31-.47,10.52Z"/>
    <path class="cls-1" d="M747.35,1398.72c-9.92-.33-14.88-.5-24.79-.87.16-4.21.23-6.31.39-10.52,1.52.06,2.28.08,3.8.14.34-9.16.5-13.75.84-22.91-2.02-.07-3.03-.11-5.05-.19-.12,3.2-.18,4.8-.3,7.99-3.3-.12-4.95-.19-8.25-.31.29-7.41.43-11.11.72-18.52,14.48.55,28.97,1.06,43.46,1.53-.23,7.41-.35,11.11-.58,18.52-3.3-.1-4.95-.16-8.25-.27.11-3.2.16-4.8.26-8-2.01-.07-3.01-.1-5.02-.17-.31,9.17-.46,13.75-.77,22.91,1.56.05,2.34.08,3.9.13-.14,4.21-.21,6.31-.35,10.52Z"/>
    <path class="cls-1" d="M804.36,1400.34c-14.04-.35-28.09-.73-42.13-1.15.13-4.21.19-6.31.32-10.52,1.37.04,2.05.06,3.42.1.28-9.17.41-13.75.69-22.92-1.39-.04-2.08-.06-3.47-.11.13-4.21.19-6.31.32-10.52,13.96.42,27.92.8,41.89,1.14-.13,5.63-.2,8.44-.33,14.07-4.61-.11-6.92-.17-11.53-.28.04-1.42.05-2.12.09-3.54-3.99-.1-5.99-.16-9.98-.26-.07,2.71-.11,4.06-.18,6.76,3.48.09,5.22.14,8.69.23-.09,3.58-.14,5.37-.23,8.95-3.48-.09-5.22-.14-8.71-.23-.08,2.88-.12,4.32-.2,7.21,4.01.11,6.01.16,10.02.27.04-1.42.05-2.12.09-3.54,4.62.12,6.94.18,11.56.29-.13,5.63-.2,8.44-.33,14.07Z"/>
    <path class="cls-1" d="M853.14,1401.31c-14.05-.23-28.09-.5-42.14-.81.1-4.21.14-6.32.24-10.53,1.37.03,2.05.05,3.42.08.2-9.17.3-13.75.51-22.92-1.39-.03-2.08-.05-3.47-.08.1-4.21.14-6.32.24-10.53,13.96.3,27.93.57,41.89.8-.09,5.63-.13,8.44-.22,14.07-4.61-.07-6.92-.11-11.53-.19.02-1.42.04-2.12.06-3.54-3.99-.07-5.99-.11-9.98-.18-.05,2.71-.08,4.06-.13,6.77,3.48.07,5.22.1,8.69.16-.06,3.58-.1,5.37-.16,8.95-3.48-.06-5.22-.09-8.71-.16-.06,2.88-.08,4.33-.14,7.21,4.01.08,6.01.11,10.02.18.03-1.42.04-2.12.06-3.54,4.63.08,6.94.12,11.56.19-.09,5.63-.13,8.44-.22,14.07Z"/>
    <path class="cls-1" d="M877.08,1401.64c-7.25-.09-10.88-.13-18.13-.24.06-4.21.09-6.32.16-10.53,1.55.02,2.32.03,3.87.06.13-9.17.19-13.75.32-22.92-1.54-.02-2.31-.03-3.85-.06.06-4.21.09-6.32.16-10.53,8.31.12,12.47.18,20.78.27,6.28,9.27,9.43,13.9,15.75,23.15.04-4.98.07-7.47.11-12.46-1.43-.01-2.14-.02-3.57-.03.04-4.21.06-6.32.1-10.53,7.07.07,10.61.09,17.69.14-.03,4.21-.04,6.32-.07,10.53-1.53,0-2.29-.01-3.82-.03-.08,11.34-.16,22.68-.24,34.02-5.82-.04-8.73-.06-14.55-.12-6.11-8.92-12.2-17.85-18.28-26.79-.08,6.2-.12,9.3-.19,15.49,1.56.02,2.34.03,3.9.05-.05,4.21-.07,6.32-.12,10.53Z"/>
    <path class="cls-1" d="M960.57,1402.05c-9.92.02-14.88.02-24.8,0,0-4.21.01-6.32.02-10.53,1.52,0,2.28,0,3.8,0,.01-9.17.02-13.76.04-22.93-2.02,0-3.03,0-5.05,0,0,3.2-.01,4.8-.02,8-3.3,0-4.95-.01-8.25-.03.03-7.41.04-11.12.07-18.53,14.49.04,28.98.04,43.48,0,.03,7.41.04,11.12.06,18.53-3.3.01-4.95.02-8.25.02,0-3.2-.01-4.8-.02-8-2.01,0-3.01,0-5.02,0,.01,9.17.02,13.76.03,22.93,1.56,0,2.34,0,3.9,0,0,4.21.01,6.32.02,10.53Z"/>
    <path class="cls-1" d="M1002.46,1402.21c-5.56.05-8.35.07-13.91.11-4.22-11.25-8.42-22.5-12.6-33.77-1.21,0-1.82,0-3.03.01-.02-4.21-.02-6.32-.04-10.53,9.09-.04,13.64-.06,22.73-.13.03,4.21.05,6.32.08,10.53-1.31.01-1.97.02-3.28.02,2.13,7.56,3.19,11.34,5.33,18.9,2.58-7.6,3.86-11.4,6.42-19-1.3.01-1.95.02-3.25.03-.04-4.21-.05-6.32-.09-10.53,7.64-.07,11.46-.1,19.1-.19.05,4.21.07,6.32.12,10.53-1.3.02-1.95.02-3.25.04,2.75,7.55,4.13,11.32,6.9,18.86,2.01-7.6,3.01-11.4,5.01-19.01-1.26.02-1.89.02-3.16.04-.05-4.21-.08-6.32-.13-10.53,7.07-.09,10.61-.14,17.69-.25.07,4.21.1,6.32.16,10.53-1.21.02-1.82.03-3.03.05-4,11.34-8.02,22.68-12.07,34.01-5.49.07-8.23.1-13.72.16-2.46-6.75-3.69-10.13-6.14-16.89-2.33,6.8-3.5,10.2-5.84,17Z"/>
    <path class="cls-1" d="M1089.4,1400.44c-14.04.31-28.09.59-42.14.82-.07-4.21-.1-6.32-.17-10.53,1.37-.02,2.05-.03,3.42-.06-.15-9.17-.23-13.75-.38-22.92-1.39.02-2.08.03-3.47.06l-.17-10.53c13.97-.24,27.93-.51,41.9-.82.13,5.63.19,8.44.32,14.07-4.61.11-6.92.16-11.53.25-.03-1.42-.04-2.12-.07-3.54-3.99.08-5.99.12-9.98.2.05,2.71.08,4.06.13,6.77,3.48-.07,5.22-.1,8.69-.18.07,3.58.11,5.37.19,8.95-3.48.07-5.22.11-8.71.18.06,2.88.08,4.33.14,7.21,4.01-.08,6.01-.12,10.02-.2-.03-1.42-.04-2.12-.07-3.54,4.63-.1,6.94-.15,11.56-.26.13,5.63.19,8.44.32,14.07Z"/>
    <path class="cls-1" d="M1113.34,1399.85c-7.25.2-10.88.29-18.13.46-.1-4.21-.15-6.32-.25-10.53,1.55-.04,2.32-.06,3.87-.09-.23-9.17-.34-13.75-.56-22.92-1.54.04-2.31.06-3.85.09-.1-4.21-.15-6.32-.25-10.53,8.31-.2,12.46-.31,20.77-.53,5.53,7.52,11.07,15.03,16.64,22.52-.15-4.98-.22-7.47-.37-12.45-1.43.04-2.14.06-3.57.11-.12-4.21-.19-6.31-.31-10.52,7.07-.21,10.61-.32,17.68-.55.14,4.21.2,6.31.34,10.52-1.53.05-2.29.07-3.82.12.36,11.34.72,22.67,1.08,34.01-5.82.18-8.72.27-14.54.44-6.45-8.68-12.88-17.37-19.31-26.07.16,6.2.24,9.29.41,15.49,1.56-.04,2.34-.06,3.9-.1.11,4.21.17,6.32.28,10.53Z"/>
    <path class="cls-1" d="M1185.43,1397.47c-9.92.38-14.87.57-24.79.91-.15-4.21-.22-6.31-.37-10.52,1.52-.05,2.28-.08,3.8-.13-.32-9.16-.49-13.75-.81-22.91-2.02.07-3.03.11-5.05.18.11,3.2.17,4.8.28,8-3.3.11-4.95.17-8.25.28-.25-7.41-.37-11.11-.61-18.52,14.49-.49,28.97-1.03,43.45-1.6.3,7.41.45,11.11.75,18.51-3.3.13-4.95.2-8.25.33-.12-3.2-.19-4.8-.31-7.99-2.01.08-3.01.12-5.02.19.35,9.16.52,13.75.87,22.91,1.56-.06,2.34-.09,3.9-.15.16,4.21.24,6.31.41,10.52Z"/>
    <path class="cls-1" d="M1233.22,1395.43c-9.65.45-14.47.67-24.12,1.08-.18-4.21-.27-6.31-.45-10.52,1.42-.06,2.13-.09,3.55-.15-.12-2.79-.18-4.19-.3-6.98-4.72-6.18-7.07-9.27-11.77-15.45-1.2.05-1.8.07-3,.12-.17-4.21-.26-6.31-.43-10.52,9.16-.38,13.74-.57,22.91-.98.19,4.21.28,6.31.47,10.52-1.05.05-1.57.07-2.62.12,2.03,3.51,3.04,5.26,5.08,8.76,2.1-3.69,3.15-5.54,5.24-9.23-1.07.05-1.61.07-2.68.12-.19-4.21-.29-6.31-.48-10.52,6.74-.31,10.11-.47,16.85-.79.2,4.21.31,6.31.51,10.52-1.1.05-1.65.08-2.75.13-4.11,6.58-6.17,9.87-10.31,16.44.13,2.79.19,4.19.32,6.98,1.39-.06,2.09-.1,3.48-.16.2,4.21.29,6.31.49,10.52Z"/>
    <path class="cls-1" d="M1292.89,1392.35c-9.91.56-14.86.83-24.77,1.35-.22-4.21-.33-6.31-.55-10.52,1.52-.08,2.28-.12,3.8-.2-.49-9.16-.73-13.74-1.21-22.89-2.02.11-3.03.16-5.05.27.17,3.2.25,4.79.42,7.99-3.3.17-4.95.26-8.25.42-.38-7.4-.56-11.1-.94-18.51,14.48-.75,28.95-1.54,43.43-2.36.43,7.4.64,11.1,1.07,18.5-3.3.19-4.95.29-8.24.47-.18-3.19-.27-4.79-.45-7.99-2.01.11-3.01.17-5.02.28.51,9.16.77,13.73,1.28,22.89,1.56-.09,2.34-.13,3.89-.22.24,4.2.36,6.31.59,10.51Z"/>
    <path class="cls-1" d="M1334.75,1390.22c-5.56.35-8.33.53-13.89.86-4.83-11-9.64-22.01-14.43-33.03-1.21.07-1.82.11-3.03.18-.25-4.2-.37-6.31-.62-10.51,9.08-.53,13.62-.81,22.7-1.37.26,4.2.39,6.31.66,10.51-1.31.08-1.97.12-3.28.2,2.54,7.43,3.81,11.15,6.36,18.58,2.16-7.73,3.23-11.59,5.37-19.32-1.3.08-1.95.12-3.25.21-.27-4.2-.4-6.31-.66-10.51,7.63-.48,11.45-.73,19.08-1.24.28,4.2.42,6.3.7,10.51-1.3.09-1.95.13-3.25.21,3.16,7.38,4.74,11.08,7.92,18.46,1.59-7.7,2.39-11.55,3.97-19.25-1.26.09-1.89.13-3.15.21-.28-4.2-.42-6.3-.71-10.51,7.06-.48,10.59-.72,17.66-1.21.3,4.2.44,6.3.74,10.5-1.21.09-1.82.13-3.03.21-3.38,11.55-6.78,23.08-10.2,34.61-5.48.37-8.22.55-13.7.91-2.83-6.61-4.24-9.91-7.05-16.53-1.95,6.92-2.94,10.38-4.9,17.3Z"/>
    <path class="cls-1" d="M1375.91,1364.94c-.26-3.66.39-7.27,1.93-10.82,1.53-3.53,4.06-6.6,7.61-9.2,1.26-.92,2.57-1.67,3.93-2.25,1.36-.59,2.85-1.07,4.46-1.45,1.62-.38,3.33-.64,5.13-.78,7.84-.58,14.09,1.25,18.75,5.52,2.32,2.1,4.13,4.44,5.43,7,1.3,2.56,2.07,5.32,2.3,8.29.48,6.12-1.33,11.61-5.46,16.47-4.12,4.87-10.01,7.59-17.63,8.16-7.37.55-13.51-1.16-18.4-5.06-4.88-3.9-7.59-9.19-8.06-15.88ZM1394.98,1363.56c.36,4.88,1.11,8.14,2.15,9.76,1.04,1.62,2.52,2.41,4.46,2.27,1.92-.14,3.3-1.08,4.12-2.81.83-1.75,1.05-5.11.67-10.07-.36-4.81-1.08-8.06-2.13-9.73-1.03-1.65-2.54-2.41-4.51-2.26-1.89.14-3.25,1.08-4.07,2.81-.82,1.73-1.05,5.08-.69,10.04Z"/>
  </g>
</svg>